# ProBuilder 4.5.2
# https://unity3d.com/unity/features/worldbuilding/probuilder
# 12/6/2023 11:35:09 PM

mtllib ./SlateMesh.mtl
o SlateMesh

g Upper
v 0.08129668 0.08296673 -0.01644893
v -0.01529582 0.0570849 -0.01644894
v 0.1342418 0.03602781 -0.01644896
v -1.447033E-05 5.401441E-05 -0.01644898
v -0.01805441 0.05023325 -0.006448716
v -0.01805441 0.05023324 0.006448779
v -0.005829292 0.00460841 -0.006448744
v -0.005829292 0.004608402 0.00644875
v -0.01529582 0.05708488 0.01644901
v 0.08129668 0.08296671 0.01644903
v -1.447033E-05 5.399382E-05 0.01644898
v 0.1342418 0.03602779 0.016449
v 0.615649 0.2225918 0.01044955
v 0.615649 0.2225918 -0.01044927
v 0.6328173 0.1734014 0.01044952
v 0.6328173 0.1734014 -0.0104493
v 0.5645967 0.2125553 0.01644911
v 0.5645967 0.2125553 -0.01644885
v 0.6044782 0.2232637 0.01644912
v 0.6044782 0.2232637 -0.01644884
v 0.6175418 0.1656163 0.01644908
v 0.6239877 0.1673656 0.01644908
v 0.6175418 0.1656163 -0.01644887
v 0.6239877 0.1673657 -0.01644887
v 0.1417094 0.09916535 -0.01644892
v 0.1417094 0.09916533 0.01644904
v 0.2021217 0.1153639 -0.01644891
v 0.2021217 0.1153638 0.01644905
v 0.1946541 0.05222629 0.01644901
v 0.2550668 0.0684249 0.01644902
v 0.1946541 0.05222631 -0.01644895
v 0.2550668 0.06842493 -0.01644894
v 0.2625339 0.1315625 -0.0164489
v 0.2625339 0.1315624 0.01644906
v 0.3229467 0.1477611 -0.01644889
v 0.3229467 0.1477611 0.01644907
v 0.3154796 0.08462341 0.01644903
v 0.3758918 0.100822 0.01644904
v 0.3154796 0.08462343 -0.01644893
v 0.3758918 0.100822 -0.01644892
v 0.3833594 0.1639596 -0.01644888
v 0.3833594 0.1639596 0.01644908
v 0.4437717 0.1801582 -0.01644887
v 0.4437717 0.1801582 0.01644909
v 0.4363041 0.1170205 0.01644905
v 0.4967168 0.1332191 0.01644906
v 0.4363041 0.1170205 -0.01644891
v 0.4967168 0.1332192 -0.01644889
v 0.5041839 0.1963567 -0.01644886
v 0.5041839 0.1963567 0.0164491
v 0.5571296 0.1494178 0.01644907
v 0.5571296 0.1494178 -0.01644889

vt 0.868063 0.1497874
vt 0.7680631 0.1497874
vt 0.9070554 0.2497874
vt 0.7680631 0.2497874
vt 0.6659603 0.1597874
vt 0.6530628 0.1597874
vt 0.6659603 0.2397874
vt 0.6530628 0.2397874
vt 0.7180629 0.1497874
vt 0.618063 0.1497874
vt 0.7180629 0.2497874
vt 0.5790706 0.2497874
vt 0.9504463 0.460351
vt 0.9419562 0.460351
vt 0.9504463 0.4961353
vt 0.9419562 0.4961353
vt 0.5790706 0.08268498
vt 0.7180629 0.08268498
vt 0.5790706 0.04978703
vt 0.7180629 0.04978703
vt 0.868063 0.04978703
vt 0.7680631 0.04978703
vt 0.868063 0.08268498
vt 0.7680631 0.08268498
vt 0.9486313 0.4875162
vt 0.9486313 0.500881
vt 0.9654071 0.4875162
vt 0.9654071 0.500881
vt 0.9225592 0.4941396
vt 0.9383999 0.4535145
vt 0.9198459 0.4941248
vt 0.9216241 0.4534998
vt 0.9485956 0.4535145
vt 0.9644363 0.4941396
vt 0.9653714 0.4534998
vt 0.9671497 0.4941248
vt 0.9225628 0.500881
vt 0.9225628 0.4875162
vt 0.9198493 0.500881
vt 0.9198493 0.4875162
vt 0.9116555 0.4875162
vt 0.9116555 0.500881
vt 0.9166088 0.4899536
vt 0.9166088 0.4984437
vt 0.9585667 0.4971389
vt 0.9601054 0.4565041
vt 0.9537978 0.4946992
vt 0.9551517 0.4589406
vt 0.9268913 0.456504
vt 0.9284299 0.4971388
vt 0.9318449 0.4589405
vt 0.9331989 0.4946992
vt 0.9567119 0.500881
vt 0.9567119 0.4875162
vt 0.9519418 0.4984437
vt 0.9519418 0.4899536
vt 0.6759605 0.1396464
vt 0.6430626 0.1396464
vt 0.6659603 0.1505869
vt 0.6530628 0.1505869
vt 0.6918698 0.2497874
vt 0.6918698 0.1497874
vt 0.6809291 0.2397874
vt 0.6809291 0.1597874
vt 0.6415182 0.1497874
vt 0.6415182 0.2497874
vt 0.6524589 0.1597874
vt 0.6524589 0.2397874
vt 0.6430626 0.2513317
vt 0.6759605 0.2513317
vt 0.6530628 0.2403912
vt 0.6659603 0.2403912
vt 0.03258681 0.3978974
vt 0.03258681 0.4171736
vt 0.06923514 0.4171736
vt 0.06923514 0.3978974
vt 0.1468702 0.4173273
vt 0.1844959 0.4173273
vt 0.1844959 0.3975371
vt 0.1468702 0.3975371
vt 0.06559969 0.5248445
vt 0.0884468 0.4662507
vt 0.05179846 0.4662401
vt 0.02895135 0.5248339
vt 0.2084577 0.4650304
vt 0.170832 0.4650195
vt 0.1473757 0.5251758
vt 0.1850013 0.5251867
vt 0.03258681 0.4564914
vt 0.05543392 0.5150852
vt 0.09208225 0.5150745
vt 0.06923514 0.4564807
vt 0.1703266 0.5178389
vt 0.2079522 0.517828
vt 0.1844959 0.4576717
vt 0.1468702 0.4576827
vt 0.06561672 0.4269329
vt 0.06561672 0.4076568
vt 0.02896838 0.4076568
vt 0.02896838 0.4269329
vt 0.1850188 0.4048848
vt 0.1473932 0.4048848
vt 0.1473932 0.424675
vt 0.1850188 0.424675
vt 0.2889909 0.4193988
vt 0.2889909 0.4330206
vt 0.3148891 0.4330206
vt 0.3148891 0.4193988
vt 0.3877245 0.3936021
vt 0.4224182 0.3936021
vt 0.4224182 0.375354
vt 0.3877245 0.375354
vt 0.3155774 0.5110796
vt 0.3317226 0.4696734
vt 0.3058245 0.4696658
vt 0.2896792 0.5110721
vt 0.4406341 0.4485591
vt 0.4059404 0.448549
vt 0.3843117 0.5040177
vt 0.4190055 0.5040278
vt 0.2889909 0.4607902
vt 0.3051363 0.5021964
vt 0.3310344 0.5021889
vt 0.3148891 0.4607826
vt 0.409353 0.4862615
vt 0.4440467 0.4862514
vt 0.4224181 0.4307826
vt 0.3877243 0.4307927
vt 0.3155894 0.4419038
vt 0.3155894 0.428282
vt 0.2896912 0.428282
vt 0.2896912 0.4419038
vt 0.436788 0.3764644
vt 0.4020942 0.3764644
vt 0.4020942 0.3947124
vt 0.436788 0.3947124
vt 0.4990326 0.4389717
vt 0.4990326 0.4525935
vt 0.5249308 0.4525935
vt 0.5249308 0.4389717
vt 0.592202 0.4807747
vt 0.6259185 0.4807747
vt 0.6259185 0.4630406
vt 0.592202 0.4630406
vt 0.5207721 0.4666541
vt 0.5369174 0.4252478
vt 0.5110192 0.4252403
vt 0.4948739 0.4666466
vt 0.6436232 0.4192587
vt 0.6099068 0.4192489
vt 0.5888875 0.4731552
vt 0.6226039 0.473165
vt 0.4990206 0.4043462
vt 0.5151659 0.4457525
vt 0.541064 0.4457449
vt 0.5249187 0.4043387
vt 0.6132057 0.4718587
vt 0.6469221 0.4718488
vt 0.6259028 0.4179426
vt 0.5921863 0.4179524
vt 0.5207721 0.4734951
vt 0.5207721 0.4598733
vt 0.4948739 0.4598733
vt 0.4948739 0.4734951
vt 0.6226039 0.4643469
vt 0.5888875 0.4643469
vt 0.5888875 0.482081
vt 0.6226039 0.482081
vt 0.7025716 0.462277
vt 0.7025716 0.4756418
vt 0.727981 0.4756418
vt 0.727981 0.462277
vt 0.8157417 0.4560339
vt 0.8338216 0.4560339
vt 0.8338216 0.4465244
vt 0.8157417 0.4465244
vt 0.7251195 0.4715278
vt 0.7409602 0.4309028
vt 0.7155507 0.4308954
vt 0.69971 0.4715204
vt 0.8448949 0.4192721
vt 0.826815 0.4192668
vt 0.8155438 0.4481731
vt 0.8336236 0.4481784
vt 0.7025597 0.4282901
vt 0.7184004 0.468915
vt 0.7438099 0.4689077
vt 0.7279692 0.4282827
vt 0.8270046 0.4512424
vt 0.8450844 0.4512371
vt 0.8338132 0.4223309
vt 0.8157333 0.4223361
vt 0.7251195 0.4782545
vt 0.7251195 0.4648897
vt 0.69971 0.4648897
vt 0.69971 0.4782545
vt 0.8336236 0.4434603
vt 0.8155438 0.4434603
vt 0.8155438 0.4529699
vt 0.8336236 0.4529699

vn -0.183071 0.6829977 -0.7071065
vn -0.7569188 0.4033935 -0.5141477
vn 0 6.258487E-07 -1
vn -0.653037 -0.4458801 -0.612155
vn -0.9885631 -0.04340446 -0.1444266
vn -0.9885631 -0.04340464 0.1444266
vn -0.8778235 -0.4566912 -0.1444269
vn -0.8778235 -0.4566914 0.1444263
vn -0.7569188 0.4033928 0.5141482
vn -0.183071 0.6829968 0.7071074
vn -0.653037 -0.4458809 0.6121545
vn 0 -6.258487E-07 1
vn 0.650664 0.657153 0.3805082
vn 0.6506647 0.6571536 -0.3805058
vn 0.9061258 -0.1510232 0.3951304
vn 0.9061267 -0.1510222 -0.3951289
vn 0.2588186 -0.9659262 -6.045236E-07
vn 0.09672079 0.7488231 0.6556748
vn 0.09671957 0.7488237 -0.6556744
vn 0.4649125 -0.2954164 0.8346172
vn 0.464911 -0.2954161 -0.8346181
vn 0.2619205 -0.9650897 -6.04E-07
vn 0.1158221 -0.4319558 0.8944271
vn 0.1158221 -0.4319547 -0.8944277

usemtl ClapperColors
f 3/3/3 4/4/4 2/2/2 1/1/1
f 7/7/7 8/8/8 6/6/6 5/5/5
f 11/11/11 12/12/12 10/10/10 9/9/9
f 15/15/15 16/16/16 14/14/14 13/13/13
f 12/19/17 11/20/17 4/18/17 3/17/17
f 1/23/1 2/24/2 9/22/9 10/21/10
f 19/27/18 20/28/19 18/26/1 17/25/10
f 22/31/20 19/32/18 17/30/10 21/29/12
f 20/35/19 24/36/21 23/34/3 18/33/1
f 24/39/22 22/40/22 21/38/22 23/37/22
f 13/43/13 14/44/14 20/42/19 19/41/18
f 15/47/15 13/48/13 19/46/18 22/45/20
f 14/51/14 16/52/16 24/50/21 20/49/19
f 16/55/16 15/56/15 22/54/20 24/53/21
f 5/59/5 6/60/6 9/58/9 2/57/2
f 7/63/7 5/64/5 2/62/2 4/61/4
f 6/67/6 8/68/8 11/66/11 9/65/9
f 8/71/8 7/72/7 4/70/4 11/69/11
f 26/76/10 25/75/1 1/74/1 10/73/10
f 28/79/10 27/78/1 25/77/1 26/80/10
f 29/84/12 26/83/10 10/82/10 12/81/12
f 30/87/12 28/86/10 26/85/10 29/88/12
f 3/90/3 1/89/1 25/92/1 31/91/3
f 31/93/3 25/96/1 27/95/1 32/94/3
f 3/97/17 31/100/17 29/99/17 12/98/17
f 31/104/17 32/103/17 30/102/17 29/101/17
f 34/108/10 33/107/1 27/106/1 28/105/10
f 36/111/10 35/110/1 33/109/1 34/112/10
f 37/116/23 34/115/10 28/114/10 30/113/12
f 38/119/23 36/118/10 34/117/10 37/120/23
f 32/122/3 27/121/1 33/124/1 39/123/24
f 39/125/24 33/128/1 35/127/1 40/126/24
f 32/129/17 39/132/17 37/131/17 30/130/17
f 39/136/24 40/135/24 38/134/23 37/133/23
f 42/140/10 41/139/1 35/138/1 36/137/10
f 44/143/10 43/142/1 41/141/1 42/144/10
f 45/148/12 42/147/10 36/146/10 38/145/23
f 46/151/12 44/150/10 42/149/10 45/152/12
f 40/154/24 35/153/1 41/156/1 47/155/3
f 47/157/3 41/160/1 43/159/1 48/158/3
f 40/161/17 47/164/17 45/163/17 38/162/17
f 47/168/17 48/167/17 46/166/17 45/165/17
f 50/172/10 49/171/1 43/170/1 44/169/10
f 17/175/10 18/174/1 49/173/1 50/176/10
f 51/180/12 50/179/10 44/178/10 46/177/12
f 21/183/12 17/182/10 50/181/10 51/184/12
f 48/186/3 43/185/1 49/188/1 52/187/3
f 52/189/3 49/192/1 18/191/1 23/190/3
f 48/193/17 52/196/17 51/195/17 46/194/17
f 52/200/17 23/199/17 21/198/17 51/197/17

g Lower
v 0.0999999 -0.0590986 0.01644897
v 0 -0.0590986 0.01644897
v 0.1389923 -5.590916E-05 0.01644897
v 0 -5.590916E-05 0.01644897
v -0.004437923 -0.0531944 0.006448746
v -0.004437923 -0.0531944 -0.006448746
v -0.004437923 -0.005960107 0.006448746
v -0.004437923 -0.005960107 -0.006448746
v 0 -0.0590986 -0.01644897
v 0.0999999 -0.0590986 -0.01644897
v 0 -5.590916E-05 -0.01644897
v 0.1389923 -5.590916E-05 -0.01644897
v 0.6522822 -0.05566573 -0.01044941
v 0.6522822 -0.05566573 0.01044941
v 0.6561341 -0.003708005 -0.01044941
v 0.6561341 -0.003708005 0.01044941
v 0.6003718 -0.05918455 -0.01644897
v 0.6003718 -0.05918455 0.01644897
v 0.6416659 -0.05920601 -0.01644897
v 0.6416659 -0.05920601 0.01644897
v 0.6393642 -0.0001417398 -0.01644897
v 0.6460433 -0.0001631975 -0.01644897
v 0.6393642 -0.0001417398 0.01644897
v 0.6460433 -0.0001631975 0.01644897
v 0.1625466 -0.05910933 0.01644897
v 0.1625466 -0.05910933 -0.01644897
v 0.2250929 -0.05912006 0.01644897
v 0.2250929 -0.05912006 -0.01644897
v 0.2015386 -6.663799E-05 -0.01644897
v 0.2640853 -7.736683E-05 -0.01644897
v 0.2015386 -6.663799E-05 0.01644897
v 0.2640853 -7.736683E-05 0.01644897
v 0.2876391 -0.05913091 0.01644897
v 0.2876391 -0.05913091 -0.01644897
v 0.3501859 -0.05914164 0.01644897
v 0.3501859 -0.05914164 -0.01644897
v 0.326632 -8.797646E-05 -0.01644897
v 0.3891783 -9.88245E-05 -0.01644897
v 0.326632 -8.797646E-05 0.01644897
v 0.3891783 -9.88245E-05 0.01644897
v 0.4127326 -0.05915225 0.01644897
v 0.4127326 -0.05915225 -0.01644897
v 0.4752789 -0.05916309 0.01644897
v 0.4752789 -0.05916309 -0.01644897
v 0.4517245 -0.0001095533 -0.01644897
v 0.5142713 -0.0001202822 -0.01644897
v 0.4517245 -0.0001095533 0.01644897
v 0.5142713 -0.0001202822 0.01644897
v 0.5378251 -0.05917382 0.01644897
v 0.5378251 -0.05917382 -0.01644897
v 0.576818 -0.000131011 -0.01644897
v 0.576818 -0.000131011 0.01644897
v 0.01147318 -0.1477611 0.00711441
v 0.01147318 -0.1477611 -0.007432938
v 0.01147318 -0.04970002 0.00711441
v 0.01147318 -0.04970002 -0.007432938
v 0.6373701 -0.1477611 -0.007432938
v 0.6373701 -0.04970002 -0.007432938
v 0.6373701 -0.1477611 0.00711441
v 0.6373701 -0.04970002 0.00711441
v 0.6373701 -0.5004685 -0.007432938
v 0.01147318 -0.5004685 -0.007432938
v 0.6373701 -0.5004685 0.00711441
v 0.01147318 -0.5004685 0.00711441
v 0.6373701 -0.2347252 -0.007432938
v 0.01147318 -0.2347252 -0.007432938
v 0.6373701 -0.2347252 0.00711441
v 0.01147318 -0.2347252 0.00711441
v 0.09268194 -0.1477611 0.00711441
v 0.09268194 -0.2347252 0.00711441
v 0.5471461 -0.1477611 0.00711441
v 0.5471461 -0.2347252 0.00711441

vt 0.868063 0.1497874
vt 0.7680631 0.1497874
vt 0.9070554 0.2497874
vt 0.7680631 0.2497874
vt 0.6659603 0.1597874
vt 0.6530628 0.1597874
vt 0.6659603 0.2397874
vt 0.6530628 0.2397874
vt 0.7180629 0.1497874
vt 0.618063 0.1497874
vt 0.7180629 0.2497874
vt 0.5790706 0.2497874
vt 0.9504463 0.460351
vt 0.9419562 0.460351
vt 0.9504463 0.4961353
vt 0.9419562 0.4961353
vt 0.5790706 0.08268498
vt 0.7180629 0.08268498
vt 0.5790706 0.04978703
vt 0.7180629 0.04978703
vt 0.868063 0.04978703
vt 0.7680631 0.04978703
vt 0.868063 0.08268498
vt 0.7680631 0.08268498
vt 0.9486313 0.4875162
vt 0.9486313 0.500881
vt 0.9654071 0.4875162
vt 0.9654071 0.500881
vt 0.9225592 0.4941396
vt 0.9383999 0.4535145
vt 0.9198459 0.4941248
vt 0.9216241 0.4534998
vt 0.9485956 0.4535145
vt 0.9644363 0.4941396
vt 0.9653714 0.4534998
vt 0.9671497 0.4941248
vt 0.9225628 0.500881
vt 0.9225628 0.4875162
vt 0.9198493 0.500881
vt 0.9198493 0.4875162
vt 0.9116555 0.4875162
vt 0.9116555 0.500881
vt 0.9166088 0.4899536
vt 0.9166088 0.4984437
vt 0.9585667 0.4971389
vt 0.9601054 0.4565041
vt 0.9537978 0.4946992
vt 0.9551517 0.4589406
vt 0.9268913 0.456504
vt 0.9284299 0.4971388
vt 0.9318449 0.4589405
vt 0.9331989 0.4946992
vt 0.9567119 0.500881
vt 0.9567119 0.4875162
vt 0.9519418 0.4984437
vt 0.9519418 0.4899536
vt 0.6759605 0.1396464
vt 0.6430626 0.1396464
vt 0.6659603 0.1505869
vt 0.6530628 0.1505869
vt 0.6918698 0.2497874
vt 0.6918698 0.1497874
vt 0.6809291 0.2397874
vt 0.6809291 0.1597874
vt 0.6415182 0.1497874
vt 0.6415182 0.2497874
vt 0.6524589 0.1597874
vt 0.6524589 0.2397874
vt 0.6430626 0.2513317
vt 0.6759605 0.2513317
vt 0.6530628 0.2403912
vt 0.6659603 0.2403912
vt 0.03258681 0.3978974
vt 0.03258681 0.4171736
vt 0.06923514 0.4171736
vt 0.06923514 0.3978974
vt 0.1468702 0.4173273
vt 0.1844959 0.4173273
vt 0.1844959 0.3975371
vt 0.1468702 0.3975371
vt 0.06559969 0.5248445
vt 0.0884468 0.4662507
vt 0.05179846 0.4662401
vt 0.02895135 0.5248339
vt 0.2084577 0.4650304
vt 0.170832 0.4650195
vt 0.1473757 0.5251758
vt 0.1850013 0.5251867
vt 0.03258681 0.4564914
vt 0.05543392 0.5150852
vt 0.09208225 0.5150745
vt 0.06923514 0.4564807
vt 0.1703266 0.5178389
vt 0.2079522 0.517828
vt 0.1844959 0.4576717
vt 0.1468702 0.4576827
vt 0.06561672 0.4269329
vt 0.06561672 0.4076568
vt 0.02896838 0.4076568
vt 0.02896838 0.4269329
vt 0.1850188 0.4048848
vt 0.1473932 0.4048848
vt 0.1473932 0.424675
vt 0.1850188 0.424675
vt 0.2889909 0.4193988
vt 0.2889909 0.4330206
vt 0.3148891 0.4330206
vt 0.3148891 0.4193988
vt 0.3877245 0.3936021
vt 0.4224182 0.3936021
vt 0.4224182 0.375354
vt 0.3877245 0.375354
vt 0.3155774 0.5110796
vt 0.3317226 0.4696734
vt 0.3058245 0.4696658
vt 0.2896792 0.5110721
vt 0.4406341 0.4485591
vt 0.4059404 0.448549
vt 0.3843117 0.5040177
vt 0.4190055 0.5040278
vt 0.2889909 0.4607902
vt 0.3051363 0.5021964
vt 0.3310344 0.5021889
vt 0.3148891 0.4607826
vt 0.409353 0.4862615
vt 0.4440467 0.4862514
vt 0.4224181 0.4307826
vt 0.3877243 0.4307927
vt 0.3155894 0.4419038
vt 0.3155894 0.428282
vt 0.2896912 0.428282
vt 0.2896912 0.4419038
vt 0.436788 0.3764644
vt 0.4020942 0.3764644
vt 0.4020942 0.3947124
vt 0.436788 0.3947124
vt 0.4990326 0.4389717
vt 0.4990326 0.4525935
vt 0.5249308 0.4525935
vt 0.5249308 0.4389717
vt 0.592202 0.4807747
vt 0.6259185 0.4807747
vt 0.6259185 0.4630406
vt 0.592202 0.4630406
vt 0.5207721 0.4666541
vt 0.5369174 0.4252478
vt 0.5110192 0.4252403
vt 0.4948739 0.4666466
vt 0.6436232 0.4192587
vt 0.6099068 0.4192489
vt 0.5888875 0.4731552
vt 0.6226039 0.473165
vt 0.4990206 0.4043462
vt 0.5151659 0.4457525
vt 0.541064 0.4457449
vt 0.5249187 0.4043387
vt 0.6132057 0.4718587
vt 0.6469221 0.4718488
vt 0.6259028 0.4179426
vt 0.5921863 0.4179524
vt 0.5207721 0.4734951
vt 0.5207721 0.4598733
vt 0.4948739 0.4598733
vt 0.4948739 0.4734951
vt 0.6226039 0.4643469
vt 0.5888875 0.4643469
vt 0.5888875 0.482081
vt 0.6226039 0.482081
vt 0.7025716 0.462277
vt 0.7025716 0.4756418
vt 0.727981 0.4756418
vt 0.727981 0.462277
vt 0.8157417 0.4560339
vt 0.8338216 0.4560339
vt 0.8338216 0.4465244
vt 0.8157417 0.4465244
vt 0.7251195 0.4715278
vt 0.7409602 0.4309028
vt 0.7155507 0.4308954
vt 0.69971 0.4715204
vt 0.8448949 0.4192721
vt 0.826815 0.4192668
vt 0.8155438 0.4481731
vt 0.8336236 0.4481784
vt 0.7025597 0.4282901
vt 0.7184004 0.468915
vt 0.7438099 0.4689077
vt 0.7279692 0.4282827
vt 0.8270046 0.4512424
vt 0.8450844 0.4512371
vt 0.8338132 0.4223309
vt 0.8157333 0.4223361
vt 0.7251195 0.4782545
vt 0.7251195 0.4648897
vt 0.69971 0.4648897
vt 0.69971 0.4782545
vt 0.8336236 0.4434603
vt 0.8155438 0.4434603
vt 0.8155438 0.4529699
vt 0.8336236 0.4529699
vt 0.2204807 0.1903641
vt 0.216048 0.1903641
vt 0.2204807 0.2074127
vt 0.216048 0.2074127
vt 0.3115758 0.1903641
vt 0.1208729 0.1903641
vt 0.3115758 0.2074127
vt 0.1208729 0.2074127
vt 0.2769858 0.1903641
vt 0.2725531 0.1903641
vt 0.2769858 0.2074127
vt 0.2725531 0.2074127
vt 0.3721609 0.1464751
vt 0.181458 0.1464751
vt 0.3721609 0.1509078
vt 0.181458 0.1509078
vt 0.1208729 0.1656405
vt 0.3115758 0.1656405
vt 0.2725531 0.1656405
vt 0.2769858 0.1656405
vt 0.216048 0.1656405
vt 0.2204807 0.1656405
vt 0.1208729 0.07006922
vt 0.3115758 0.07006922
vt 0.2725531 0.07006922
vt 0.2769858 0.07006922
vt 0.216048 0.07006922
vt 0.2204807 0.07006922
vt 0.08784533 0.1841857
vt 0.1831968 0.1841857
vt 0.1831968 0.1594622
vt 0.08784533 0.1594622
vt 0.181458 0.1903641
vt 0.181458 0.2074127
vt 0.3721609 0.2074127
vt 0.3721609 0.1903641
vt 0.3244852 0.1903641
vt 0.2785482 0.1594622
vt 0.2308725 0.1594622
vt 0.2308725 0.1841857
vt 0.2785482 0.1841857
vt 0.731758 0.1605655
vt 0.6840823 0.1605655
vt 0.6840823 0.185289
vt 0.731758 0.185289
vt 0.3721609 0.1656405
vt 0.3721609 0.07006922
vt 0.181458 0.07006922
vt 0.181458 0.1656405
vt 0.3244852 0.1656405

vn -6.064611E-05 -0.7071068 0.7071068
vn -0.6267219 -0.5855525 0.5141478
vn 0 0 1
vn -0.7461876 0.2616693 0.6121546
vn -0.9661127 -0.2139329 0.1444266
vn -0.9661127 -0.2139329 -0.1444266
vn -0.9661127 0.2139329 0.1444266
vn -0.9661127 0.2139329 -0.1444266
vn -0.6267219 -0.5855525 -0.5141478
vn -6.064611E-05 -0.7071068 -0.7071068
vn -0.7461876 0.2616693 -0.6121546
vn 0 0 -1
vn 0.7985767 -0.4663573 -0.3805077
vn 0.7985775 -0.4663573 0.3805062
vn 0.836163 0.3803991 -0.3951304
vn 0.8361639 0.3803989 0.3951288
vn 0 1 0
vn 0.2872345 -0.6982748 -0.6556742
vn 0.2872333 -0.6982749 0.6556747
vn 0.372612 0.4056778 -0.8346172
vn 0.3726103 0.4056781 0.8346177
vn 0.003212663 0.9999948 0
vn 7.75649E-05 0.4472136 -0.8944272
vn 7.75649E-05 0.4472136 0.8944272
vn -1 0 0
vn 1 0 0
vn 0 -1 0

usemtl ClapperColors
f 123/437/27 111/436/27 112/435/27
f 107/434/27 105/433/27 121/409/27
f 107/434/27 121/409/27 123/437/27
f 112/435/27 107/434/27 123/437/27
f 124/450/27 115/447/27 119/446/27
f 115/447/27 124/450/27 116/448/27
f 116/448/27 124/450/27 122/420/27
f 122/420/27 120/449/27 116/448/27
f 56/204/28 54/202/26 53/201/25
f 53/201/25 55/203/27 56/204/28
f 60/208/32 58/206/30 57/205/29
f 57/205/29 59/207/31 60/208/32
f 64/212/36 62/210/34 61/209/33
f 61/209/33 63/211/35 64/212/36
f 68/216/40 66/214/38 65/213/37
f 65/213/37 67/215/39 68/216/40
f 63/220/41 56/218/41 55/217/41
f 55/217/41 64/219/41 63/220/41
f 54/224/26 61/222/33 62/221/34
f 62/221/34 53/223/25 54/224/26
f 72/228/43 70/226/25 69/225/34
f 69/225/34 71/227/42 72/228/43
f 71/232/42 69/230/34 73/229/36
f 73/229/36 74/231/44 71/232/42
f 76/236/45 75/234/27 70/233/25
f 70/233/25 72/235/43 76/236/45
f 74/240/46 73/238/46 75/237/46
f 75/237/46 76/239/46 74/240/46
f 66/244/38 72/242/43 71/241/42
f 71/241/42 65/243/37 66/244/38
f 65/248/37 71/246/42 74/245/44
f 74/245/44 67/247/39 65/248/37
f 68/252/40 76/250/45 72/249/43
f 72/249/43 66/251/38 68/252/40
f 67/256/39 74/254/44 76/253/45
f 76/253/45 68/255/40 67/256/39
f 58/260/30 61/258/33 54/257/26
f 54/257/26 57/259/29 58/260/30
f 57/264/29 54/262/26 56/261/28
f 56/261/28 59/263/31 57/264/29
f 60/268/32 63/266/35 61/265/33
f 61/265/33 58/267/30 60/268/32
f 59/272/31 56/270/28 63/269/35
f 63/269/35 60/271/32 59/272/31
f 77/275/25 53/274/25 62/273/34
f 62/273/34 78/276/34 77/275/25
f 79/278/25 77/277/25 78/280/34
f 78/280/34 80/279/34 79/278/25
f 78/283/34 62/282/34 64/281/36
f 64/281/36 81/284/36 78/283/34
f 80/286/34 78/285/34 81/288/36
f 81/288/36 82/287/36 80/286/34
f 53/289/25 77/292/25 83/291/27
f 83/291/27 55/290/27 53/289/25
f 77/296/25 79/295/25 84/294/27
f 84/294/27 83/293/27 77/296/25
f 83/300/41 81/299/41 64/298/41
f 64/298/41 55/297/41 83/300/41
f 84/303/41 82/302/41 81/301/41
f 81/301/41 83/304/41 84/303/41
f 85/307/25 79/306/25 80/305/34
f 80/305/34 86/308/34 85/307/25
f 87/310/25 85/309/25 86/312/34
f 86/312/34 88/311/34 87/310/25
f 86/315/34 80/314/34 82/313/36
f 82/313/36 89/316/47 86/315/34
f 88/318/34 86/317/34 89/320/47
f 89/320/47 90/319/47 88/318/34
f 79/321/25 85/324/25 91/323/48
f 91/323/48 84/322/27 79/321/25
f 85/328/25 87/327/25 92/326/48
f 92/326/48 91/325/48 85/328/25
f 91/332/41 89/331/41 82/330/41
f 82/330/41 84/329/41 91/332/41
f 92/335/48 90/334/47 89/333/47
f 89/333/47 91/336/48 92/335/48
f 93/339/25 87/338/25 88/337/34
f 88/337/34 94/340/34 93/339/25
f 95/342/25 93/341/25 94/344/34
f 94/344/34 96/343/34 95/342/25
f 94/347/34 88/346/34 90/345/47
f 90/345/47 97/348/36 94/347/34
f 96/350/34 94/349/34 97/352/36
f 97/352/36 98/351/36 96/350/34
f 87/353/25 93/356/25 99/355/27
f 99/355/27 92/354/48 87/353/25
f 93/360/25 95/359/25 100/358/27
f 100/358/27 99/357/27 93/360/25
f 99/364/41 97/363/41 90/362/41
f 90/362/41 92/361/41 99/364/41
f 100/367/41 98/366/41 97/365/41
f 97/365/41 99/368/41 100/367/41
f 101/371/25 95/370/25 96/369/34
f 96/369/34 102/372/34 101/371/25
f 70/374/25 101/373/25 102/376/34
f 102/376/34 69/375/34 70/374/25
f 102/379/34 96/378/34 98/377/36
f 98/377/36 103/380/36 102/379/34
f 69/382/34 102/381/34 103/384/36
f 103/384/36 73/383/36 69/382/34
f 95/385/25 101/388/25 104/387/27
f 104/387/27 100/386/27 95/385/25
f 101/392/25 70/391/25 75/390/27
f 75/390/27 104/389/27 101/392/25
f 104/396/41 103/395/41 98/394/41
f 98/394/41 100/393/41 104/396/41
f 75/399/41 73/398/41 103/397/41
f 103/397/41 104/400/41 75/399/41
f 108/404/49 106/402/49 105/401/49
f 105/401/49 107/403/49 108/404/49
f 110/408/36 109/406/36 106/405/36
f 106/405/36 108/407/36 110/408/36
f 112/412/50 111/410/50 109/409/50
f 109/409/50 110/411/50 112/412/50
f 116/416/51 114/414/51 113/413/51
f 113/413/51 115/415/51 116/416/51
f 118/418/36 106/405/36 109/406/36
f 109/406/36 117/417/36 118/418/36
f 117/420/50 109/409/50 111/410/50
f 111/410/50 119/419/50 117/420/50
f 120/422/49 105/401/49 106/402/49
f 106/402/49 118/421/49 120/422/49
f 114/424/36 118/418/36 117/417/36
f 117/417/36 113/423/36 114/424/36
f 113/426/50 117/420/50 119/419/50
f 119/419/50 115/425/50 113/426/50
f 116/428/49 120/422/49 118/421/49
f 118/421/49 114/427/49 116/428/49
f 105/429/27 120/432/27 122/431/27
f 122/431/27 121/430/27 105/429/27
f 123/440/27 124/439/27 119/438/27
f 119/438/27 111/441/27 123/440/27
f 121/444/27 122/443/27 124/442/27
f 124/442/27 123/445/27 121/444/27

